<?xml version="1.0" encoding="UTF-8" standalone="no"?><!DOCTYPE svg PUBLIC "-//W3C//DTD SVG 1.1//EN" "http://www.w3.org/Graphics/SVG/1.1/DTD/svg11.dtd"><svg width="100%" height="100%" viewBox="0 0 27 23" version="1.1" xmlns="http://www.w3.org/2000/svg" xmlns:xlink="http://www.w3.org/1999/xlink" xml:space="preserve" xmlns:serif="http://www.serif.com/" style="fill-rule:evenodd;clip-rule:evenodd;stroke-linejoin:round;stroke-miterlimit:1.41421;"><g><g><path d="M23.004,3.62l-0.22,-0.137c-0.195,-0.122 -0.451,-0.062 -0.572,0.133c-0.121,0.195 -0.062,0.451 0.133,0.572l0.22,0.137c0.069,0.043 0.144,0.063 0.219,0.063c0.139,0 0.275,-0.069 0.353,-0.196c0.122,-0.195 0.062,-0.451 -0.133,-0.572Z" style="fill:#add487;fill-rule:nonzero;"/><path d="M26.238,4.937c-0.029,-0.114 -0.105,-0.211 -0.21,-0.266l-1.895,-1l-0.298,-1.388c-0.021,-0.101 -0.08,-0.191 -0.164,-0.251l-0.751,-0.536l0.303,-0.955c0.047,-0.149 0.007,-0.312 -0.104,-0.421c-0.111,-0.11 -0.275,-0.148 -0.423,-0.099c-0.022,0.008 -0.549,0.185 -1.096,0.527c-0.156,0.097 -0.297,0.199 -0.426,0.304l-0.337,0.013c-1.398,0.052 -2.699,0.71 -3.569,1.805l-3.01,3.789l-3.602,0.612c-2.518,0.429 -3.927,-0.355 -4.522,-0.832c0.26,-0.148 0.553,-0.226 0.851,-0.226c0.56,0 1.087,0.273 1.409,0.73c0.068,0.096 0.172,0.159 0.289,0.173c0.116,0.015 0.233,-0.021 0.322,-0.098l0.929,-0.802c0.525,-0.453 0.826,-1.111 0.826,-1.805c0,-0.608 -0.228,-1.186 -0.643,-1.629c-0.869,-0.928 -2.096,-1.46 -3.367,-1.46c-0.938,0 -1.843,0.283 -2.616,0.816c-1.817,1.254 -2.49,3.63 -1.601,5.65l0.16,0.363l-0.817,1.072c-1.447,1.9 -1.933,4.316 -1.333,6.627l0.33,1.271l-0.545,0.632c-0.235,0.272 -0.35,0.62 -0.325,0.98l0.205,2.866c0.054,0.753 0.688,1.343 1.443,1.343l1.432,0c0.178,0 0.348,-0.086 0.454,-0.229c0.106,-0.144 0.137,-0.332 0.084,-0.502c-0.107,-0.348 -0.319,-0.645 -0.612,-0.861c-0.18,-0.132 -0.38,-0.226 -0.593,-0.279l-0.017,-1.155c-0.007,-0.462 0.219,-0.889 0.606,-1.142l1.802,-1.181c0.484,-0.317 0.897,-0.746 1.194,-1.241l0.433,-0.718c0.316,-0.524 0.871,-0.838 1.485,-0.838c0.337,0 0.665,0.099 0.949,0.286c0.863,0.569 1.906,0.825 2.935,0.721l3.331,-0.334l0.057,3.551c0.004,0.295 0.077,0.59 0.208,0.854l1.178,2.355c0.22,0.44 0.662,0.713 1.154,0.713l1.541,0c0.253,0 0.489,-0.137 0.615,-0.356c0.126,-0.22 0.124,-0.493 -0.004,-0.711c-0.252,-0.431 -0.68,-0.728 -1.162,-0.822l-0.246,-0.929l0.469,-5.049l1.072,-1.161c0.759,-0.823 1.299,-1.834 1.559,-2.923l0.905,-3.781l1.611,-0.037c0.597,-0.013 1.152,-0.316 1.486,-0.811l0.602,-0.892c0.066,-0.097 0.087,-0.219 0.059,-0.333Zm-21.632,-2.315c0.634,-0.437 1.375,-0.669 2.144,-0.669c1.042,0 2.048,0.436 2.76,1.196c0.271,0.289 0.419,0.666 0.419,1.061c0,0.453 -0.196,0.882 -0.538,1.177l-0.613,0.53c-0.473,-0.467 -1.117,-0.735 -1.793,-0.735c-1.024,0 -2.847,1.114 -3.704,2.04c-0.708,-1.649 -0.155,-3.578 1.325,-4.6Zm20.282,3.075c-0.183,0.272 -0.488,0.438 -0.816,0.446l-1.727,0.039c-0.5,0.011 -0.987,-0.117 -1.415,-0.37c-0.288,-0.171 -0.54,-0.405 -0.731,-0.679c-0.131,-0.188 -0.39,-0.235 -0.578,-0.104c-0.188,0.131 -0.235,0.39 -0.104,0.578c0.258,0.371 0.6,0.689 0.989,0.92c0.352,0.208 0.736,0.351 1.133,0.426l-0.872,3.644c-0.227,0.952 -0.698,1.835 -1.362,2.554l-1.167,1.264c-0.062,0.067 -0.1,0.153 -0.108,0.244l-0.489,5.261c-0.004,0.049 0,0.098 0.012,0.145l0.338,1.278c0.049,0.182 0.213,0.309 0.402,0.309c0.238,0 0.464,0.096 0.63,0.259l-1.292,0c-0.175,0 -0.333,-0.097 -0.411,-0.254l-1.178,-2.355c-0.076,-0.153 -0.118,-0.324 -0.121,-0.495l-0.107,-6.71c-0.003,-0.229 -0.194,-0.412 -0.422,-0.409c-0.229,0.004 -0.412,0.193 -0.408,0.422l0.037,2.325l-3.402,0.342c-0.839,0.084 -1.689,-0.125 -2.394,-0.589c-0.42,-0.276 -0.907,-0.422 -1.406,-0.422c-0.205,0 -0.404,0.024 -0.597,0.07c0.601,-1.378 0.483,-2.964 -0.343,-4.249c-0.124,-0.193 -0.381,-0.249 -0.574,-0.125c-0.193,0.124 -0.249,0.381 -0.125,0.574c0.75,1.167 0.786,2.638 0.093,3.84l-0.65,1.128c0,0.001 -0.001,0.001 -0.001,0.002l-0.432,0.718c-0.234,0.389 -0.559,0.726 -0.938,0.975l-1.802,1.18c-0.626,0.41 -0.993,1.101 -0.982,1.85l0.023,1.514c0.004,0.227 0.188,0.409 0.415,0.409c0.185,0 0.362,0.058 0.511,0.167c0.038,0.028 0.073,0.059 0.105,0.092l-0.971,0c-0.321,0 -0.591,-0.251 -0.614,-0.571l-0.205,-2.866c-0.01,-0.139 0.035,-0.274 0.125,-0.379l0.688,-0.796c0.089,-0.104 0.121,-0.244 0.087,-0.376l-0.384,-1.482c-0.536,-2.063 -0.102,-4.219 1.189,-5.915l0.965,-1.267c0.002,-0.002 0.003,-0.004 0.004,-0.006c0.001,-0.001 0.001,-0.001 0.002,-0.002c0.645,-0.889 1.459,-1.38 1.859,-1.584c0.475,0.453 1.701,1.359 3.898,1.359c0.466,0 0.976,-0.041 1.531,-0.136l3.758,-0.638c0.101,-0.018 0.192,-0.071 0.255,-0.151l3.11,-3.914c0.633,-0.797 1.542,-1.313 2.539,-1.455c-0.08,0.174 -0.131,0.354 -0.148,0.537c-0.023,0.228 0.144,0.431 0.373,0.454c0.228,0.022 0.431,-0.145 0.453,-0.374c0.047,-0.476 0.53,-0.882 1.01,-1.163l-0.383,1.206c-0.069,0.218 0.052,0.452 0.271,0.521c0.041,0.014 0.084,0.02 0.125,0.02c0.177,0 0.34,-0.113 0.396,-0.29l0.1,-0.315l0.401,0.286l0.013,0.059c-0.172,0.025 -0.317,0.157 -0.35,0.338c-0.04,0.226 0.11,0.441 0.336,0.482l0.197,0.035l0.109,0.507c0.026,0.121 0.104,0.224 0.212,0.281l1.658,0.874l-0.343,0.507Z" style="fill:#add487;fill-rule:nonzero;"/></g></g></svg>