<?xml version="1.0" encoding="UTF-8" standalone="no"?><!DOCTYPE svg PUBLIC "-//W3C//DTD SVG 1.1//EN" "http://www.w3.org/Graphics/SVG/1.1/DTD/svg11.dtd"><svg width="100%" height="100%" viewBox="0 0 27 27" version="1.1" xmlns="http://www.w3.org/2000/svg" xmlns:xlink="http://www.w3.org/1999/xlink" xml:space="preserve" xmlns:serif="http://www.serif.com/" style="fill-rule:evenodd;clip-rule:evenodd;stroke-linejoin:round;stroke-miterlimit:1.41421;"><g><path id="surface1" d="M13.125,26.25c7.249,0 13.125,-5.876 13.125,-13.125c0,-7.249 -5.876,-13.125 -13.125,-13.125c-7.249,0 -13.125,5.876 -13.125,13.125c0,7.249 5.876,13.125 13.125,13.125Zm-10.011,-5.802c0.309,-1.073 2.198,-7.137 5.71,-9.105c0.999,-0.573 2.179,-0.743 3.299,-0.476c-1.785,4.417 -3.024,9.034 -3.689,13.751c-2.123,-0.874 -3.964,-2.317 -5.32,-4.17Zm6.009,4.422c0.655,-4.734 1.895,-9.369 3.69,-13.798c1.05,0.401 1.913,1.179 2.42,2.182c2.041,3.851 0.207,10.838 -0.16,12.132c-1.994,0.318 -4.036,0.142 -5.947,-0.511l-0.003,-0.005Zm6.733,0.359c0.535,-1.962 2.053,-8.447 0,-12.311c-0.58,-1.15 -1.565,-2.043 -2.767,-2.507c0.674,-1.58 1.352,-2.958 1.984,-4.121c4.059,1.573 6.616,4.456 7.568,8.6c0.441,1.936 0.521,3.936 0.238,5.9c-1.762,2.242 -4.242,3.809 -7.023,4.439Zm9.68,-12.104c0.003,2.275 -0.624,4.506 -1.81,6.447c0.108,-1.615 -0.017,-3.238 -0.371,-4.817c-0.714,-3.022 -2.651,-7.014 -7.929,-9.098c0.373,-0.661 0.727,-1.249 1.049,-1.753c0.896,0.276 1.831,0.41 2.769,0.397c0.797,-0.006 1.592,-0.073 2.379,-0.202c2.496,2.338 3.913,5.606 3.913,9.026Zm-7.534,-11.419c1.049,0.451 2.03,1.044 2.917,1.763c-1.578,0.192 -2.931,0.13 -4.045,-0.193c0.533,-0.771 0.921,-1.299 1.128,-1.57Zm-1.818,1.325c-0.323,-0.137 -0.631,-0.308 -0.918,-0.509c-0.64,-0.443 -1.136,-1.063 -1.427,-1.785c1.185,0.07 2.354,0.311 3.471,0.714c-0.238,0.321 -0.643,0.854 -1.126,1.589l0,-0.009Zm-3.109,-2.315c0.305,0.963 0.917,1.799 1.744,2.379c0.306,0.218 0.632,0.404 0.975,0.557c-0.317,0.511 -0.666,1.097 -1.046,1.76c-6.493,-2.241 -10.944,0.752 -12.961,2.674c1.987,-4.462 6.404,-7.345 11.288,-7.37Zm-11.912,9.107c0.495,-0.68 5.063,-6.54 13.237,-3.783c-0.637,1.18 -1.318,2.565 -1.989,4.152c-1.327,-0.349 -2.738,-0.16 -3.928,0.525c-3.378,1.882 -5.274,7.028 -5.885,8.967c-1.838,-2.942 -2.356,-6.521 -1.428,-9.863l-0.007,0.002Z" style="fill:#add487;fill-rule:nonzero;"/></g></svg>