<?xml version="1.0" encoding="UTF-8" standalone="no"?><!DOCTYPE svg PUBLIC "-//W3C//DTD SVG 1.1//EN" "http://www.w3.org/Graphics/SVG/1.1/DTD/svg11.dtd"><svg width="100%" height="100%" viewBox="0 0 27 27" version="1.1" xmlns="http://www.w3.org/2000/svg" xmlns:xlink="http://www.w3.org/1999/xlink" xml:space="preserve" xmlns:serif="http://www.serif.com/" style="fill-rule:evenodd;clip-rule:evenodd;stroke-linejoin:round;stroke-miterlimit:1.41421;"><g><path d="M23.706,5.362c-2.074,-2.826 -5.124,-4.675 -8.589,-5.207c-3.464,-0.532 -6.929,0.317 -9.755,2.391c-2.826,2.074 -4.675,5.124 -5.207,8.589c-0.462,3.008 0.118,6.016 1.636,8.606c0.001,0.002 0.002,0.004 0.003,0.006c0.23,0.391 0.48,0.773 0.752,1.143c1.848,2.519 4.538,4.298 7.575,5.011c0.139,0.033 0.277,0.062 0.416,0.09c0.029,0.008 0.059,0.014 0.089,0.017c0.829,0.161 1.667,0.241 2.504,0.241c0.842,0 1.681,-0.082 2.506,-0.242c0.024,-0.002 0.048,-0.007 0.072,-0.013c1.146,-0.229 2.264,-0.611 3.318,-1.143c0.253,-0.128 0.354,-0.436 0.227,-0.689c-0.128,-0.252 -0.436,-0.354 -0.689,-0.226c-0.635,0.32 -1.286,0.579 -1.946,0.78l2.126,-3.685l4.162,-0.782c-0.362,0.499 -0.766,0.975 -1.211,1.42c-0.2,0.201 -0.2,0.525 0,0.725c0.2,0.201 0.525,0.2 0.725,0c0.784,-0.784 1.459,-1.662 2.015,-2.608c0.004,-0.007 0.009,-0.013 0.012,-0.02c0.907,-1.549 1.493,-3.279 1.709,-5.084c0.002,-0.013 0.004,-0.025 0.005,-0.038c0.018,-0.156 0.034,-0.313 0.047,-0.47c0.253,-3.14 -0.636,-6.269 -2.502,-8.812Zm-8.744,-4.194c2.656,0.408 5.047,1.656 6.877,3.563l-0.626,5.377l-4.019,0.903l-3.543,-2.574l0,-3.851l0.79,-0.565c0.23,-0.165 0.283,-0.486 0.118,-0.716c-0.165,-0.23 -0.485,-0.283 -0.716,-0.118l-0.738,0.53l-3.532,-2.161c1.722,-0.53 3.555,-0.669 5.389,-0.388Zm-5.188,10.59l1.67,-1.213l1.67,-1.213l3.339,2.426l-1.276,3.925l-4.127,0l0,0l-1.276,-3.925Zm-3.805,-8.385c0.748,-0.55 1.546,-1.006 2.378,-1.365l4.254,2.602l0,3.827l-3.543,2.574l-4.035,-0.906l-0.824,-5.149c0.531,-0.578 1.123,-1.109 1.77,-1.583Zm-4.801,7.918c0.297,-1.937 1.042,-3.734 2.163,-5.274l0.693,4.336l-2.997,3.023c-0.012,-0.691 0.034,-1.388 0.141,-2.085Zm-0.038,3.438l3.606,-3.638l4.038,0.907l1.34,4.124l-2.522,3.88l-5.023,-0.964c-0.755,-1.342 -1.24,-2.801 -1.439,-4.309Zm2.242,5.555c-0.013,-0.018 -0.026,-0.037 -0.039,-0.055l4.174,0.801l2.133,3.696c-2.439,-0.735 -4.656,-2.246 -6.268,-4.442Zm11.871,4.765c-1.413,0.254 -2.845,0.25 -4.231,0.005l-2.577,-4.467l2.521,-3.879l4.341,0l2.52,3.879l-2.574,4.462Zm8.42,-5.985l-5.003,0.939l-2.522,-3.881l1.34,-4.124l4.035,-0.906l3.577,3.673c-0.202,1.498 -0.68,2.96 -1.427,4.299Zm1.535,-5.658l-2.98,-3.06l0.529,-4.553c0.045,0.058 0.089,0.116 0.133,0.176c1.619,2.206 2.38,4.835 2.318,7.437Z" style="fill:#add487;fill-rule:nonzero;"/><path d="M15.937,2.214c-0.095,-0.095 -0.227,-0.15 -0.362,-0.15c-0.135,0 -0.267,0.055 -0.363,0.15c-0.095,0.096 -0.15,0.228 -0.15,0.363c0,0.135 0.055,0.267 0.15,0.362c0.096,0.096 0.228,0.15 0.363,0.15c0.135,0 0.267,-0.054 0.362,-0.15c0.096,-0.095 0.151,-0.227 0.151,-0.362c0,-0.135 -0.055,-0.267 -0.151,-0.363Z" style="fill:#add487;fill-rule:nonzero;"/><path d="M20.889,22.95c-0.095,-0.095 -0.227,-0.15 -0.362,-0.15c-0.135,0 -0.267,0.055 -0.363,0.15c-0.095,0.095 -0.15,0.228 -0.15,0.363c0,0.134 0.055,0.267 0.15,0.362c0.096,0.096 0.228,0.15 0.363,0.15c0.135,0 0.267,-0.054 0.362,-0.15c0.096,-0.095 0.15,-0.228 0.15,-0.362c0,-0.135 -0.054,-0.268 -0.15,-0.363Z" style="fill:#add487;fill-rule:nonzero;"/></g></svg>