<?xml version="1.0" encoding="UTF-8" standalone="no"?><!DOCTYPE svg PUBLIC "-//W3C//DTD SVG 1.1//EN" "http://www.w3.org/Graphics/SVG/1.1/DTD/svg11.dtd"><svg width="100%" height="100%" viewBox="0 0 15 15" version="1.1" xmlns="http://www.w3.org/2000/svg" xmlns:xlink="http://www.w3.org/1999/xlink" xml:space="preserve" xmlns:serif="http://www.serif.com/" style="fill-rule:evenodd;clip-rule:evenodd;stroke-linejoin:round;stroke-miterlimit:1.41421;"><g><path d="M7.085,0c-0.773,0 -1.539,0.127 -2.277,0.378c-0.728,0.248 -1.404,0.608 -2.011,1.07c-2.43,1.849 -3.401,5.034 -2.417,7.926c0.609,1.793 1.881,3.241 3.58,4.077c0.987,0.487 2.039,0.733 3.125,0.734c0,0 0.001,0 0.001,0c0.775,0 1.545,-0.129 2.29,-0.382c0.727,-0.247 1.404,-0.607 2.012,-1.069c2.429,-1.849 3.4,-5.034 2.416,-7.926c-0.978,-2.876 -3.678,-4.808 -6.719,-4.808Zm0.687,1.563c0.101,-0.077 0.206,-0.154 0.311,-0.228l0.081,-0.058l0.098,0.02c0.478,0.097 0.944,0.254 1.386,0.465l0.323,0.155l-0.274,0.23c-2.285,1.922 -2.751,3.89 -2.826,4.892l-0.011,0.147l-0.138,0.052c-0.261,0.099 -0.544,0.149 -0.84,0.149c-0.331,0 -0.685,-0.063 -1.052,-0.185l-0.156,-0.052l-0.001,-0.166c-0.005,-0.715 0.205,-3.219 3.099,-5.421Zm-6.132,3.238c0.402,-0.957 1.049,-1.793 1.869,-2.417c0.508,-0.386 1.072,-0.686 1.679,-0.892c0.18,-0.061 0.374,-0.117 0.576,-0.164l0.78,-0.184l-0.563,0.57c-1.654,1.678 -2.177,3.39 -2.324,4.531l-0.049,0.374l-0.311,-0.214c-0.671,-0.46 -1.245,-0.989 -1.607,-1.351l-0.11,-0.11l0.06,-0.143Zm-0.212,3.979l-0.025,-0.089c-0.194,-0.689 -0.262,-1.398 -0.202,-2.108l0.039,-0.456l0.344,0.303c0.859,0.757 2.562,2.028 4.304,2.028c0.494,0 0.966,-0.102 1.404,-0.303l0.109,-0.05l0.104,0.061c0.517,0.304 0.986,0.658 1.392,1.054l0.209,0.203l-0.246,0.157c-0.505,0.323 -1.365,0.712 -2.591,0.734c-0.036,0.001 -0.073,0.001 -0.109,0.001c-1.431,0 -2.996,-0.501 -4.653,-1.488l-0.079,-0.047Zm8.987,3.199c-0.444,0.303 -0.922,0.541 -1.419,0.71c-0.621,0.212 -1.263,0.319 -1.91,0.319c-0.906,0 -1.783,-0.206 -2.606,-0.611c-0.643,-0.317 -1.217,-0.741 -1.705,-1.262l-0.689,-0.735l0.94,0.362c1.088,0.418 2.143,0.63 3.136,0.63c1.605,0 2.739,-0.546 3.407,-1.004l0.199,-0.136l0.128,0.204c0.249,0.399 0.453,0.822 0.607,1.255l0.059,0.168l-0.147,0.1Zm2.165,-2.683c-0.224,0.559 -0.531,1.078 -0.913,1.545l-0.236,0.288l-0.153,-0.34c-0.459,-1.02 -1.392,-2.463 -3.225,-3.538l-0.126,-0.074l0.013,-0.146c0.037,-0.404 0.166,-1.045 0.568,-1.812l0.098,-0.187l0.195,0.081c0.924,0.382 2.643,1.412 3.776,4.005l0.039,0.088l-0.036,0.09Zm-0.006,-2.378c-1.038,-1.488 -2.245,-2.267 -3.075,-2.659l-0.276,-0.131l0.201,-0.23c0.372,-0.423 0.815,-0.834 1.319,-1.22l0.151,-0.117l0.143,0.128c0.756,0.675 1.327,1.539 1.653,2.498c0.172,0.503 0.274,1.037 0.304,1.587l0.044,0.809l-0.464,-0.665Z" style="fill:#fff;fill-rule:nonzero;"/></g></svg>