<?xml version="1.0" encoding="UTF-8" standalone="no"?><!DOCTYPE svg PUBLIC "-//W3C//DTD SVG 1.1//EN" "http://www.w3.org/Graphics/SVG/1.1/DTD/svg11.dtd"><svg width="100%" height="100%" viewBox="0 0 27 27" version="1.1" xmlns="http://www.w3.org/2000/svg" xmlns:xlink="http://www.w3.org/1999/xlink" xml:space="preserve" xmlns:serif="http://www.serif.com/" style="fill-rule:evenodd;clip-rule:evenodd;stroke-linejoin:round;stroke-miterlimit:1.41421;"><g><g><path d="M23.038,14.113c-0.226,-0.045 -0.452,0.102 -0.497,0.333c-0.299,1.479 -0.864,2.868 -1.846,4.499c-0.118,0.203 -0.056,0.463 0.147,0.582c0.073,0.045 0.147,0.062 0.22,0.062c0.147,0 0.282,-0.074 0.361,-0.209c1.033,-1.716 1.632,-3.19 1.948,-4.77c0.045,-0.226 -0.102,-0.452 -0.333,-0.497Z" style="fill:#add487;fill-rule:nonzero;"/><path d="M15.641,12.335l0.599,0.599l1.405,-1.405l-0.599,-0.599l-1.405,1.405Z" style="fill:#add487;"/><path d="M4.823,18.452l0.599,0.598l1.405,-1.405l-0.599,-0.599l-1.405,1.406Z" style="fill:#add487;"/><path d="M8.925,15.526l-0.599,-0.598l-1.405,1.405l0.599,0.598l1.405,-1.405Z" style="fill:#add487;"/><path d="M13.15,11.321l-0.599,-0.599l-1.405,1.406l0.599,0.598l1.405,-1.405Z" style="fill:#add487;"/><path d="M11.042,13.426l-0.599,-0.599l-1.405,1.405l0.599,0.599l1.405,-1.405Z" style="fill:#add487;"/><path d="M15.247,9.205l-0.598,-0.599l-1.405,1.405l0.598,0.599l1.405,-1.405Z" style="fill:#add487;"/><path d="M17.364,7.102l-0.599,-0.599l-1.405,1.405l0.599,0.599l1.405,-1.405Z" style="fill:#add487;"/><path d="M19.465,4.989l-0.599,-0.598l-1.405,1.405l0.599,0.598l1.405,-1.405Z" style="fill:#add487;"/><path d="M7.209,20.77l0.599,0.599l1.405,-1.405l-0.598,-0.599l-1.406,1.405Z" style="fill:#add487;"/><path d="M9.319,18.658l0.598,0.599l1.406,-1.405l-0.599,-0.599l-1.405,1.405Z" style="fill:#add487;"/><path d="M13.533,14.447l0.598,0.599l1.405,-1.405l-0.598,-0.599l-1.405,1.405Z" style="fill:#add487;"/><path d="M11.427,16.555l0.599,0.598l1.405,-1.405l-0.599,-0.598l-1.405,1.405Z" style="fill:#add487;"/><path d="M17.75,10.232l0.599,0.599l1.405,-1.406l-0.599,-0.598l-1.405,1.405Z" style="fill:#add487;"/><path d="M19.855,8.124l0.598,0.599l1.406,-1.405l-0.599,-0.599l-1.405,1.405Z" style="fill:#add487;"/><path d="M22.394,3.827c-2.478,-2.467 -5.769,-3.827 -9.269,-3.827c-3.528,0 -6.825,1.36 -9.298,3.827c-2.467,2.467 -3.827,5.77 -3.827,9.298c0,3.5 1.36,6.791 3.827,9.269c2.479,2.484 5.781,3.856 9.298,3.856c3.494,0 6.785,-1.372 9.269,-3.856c2.484,-2.484 3.856,-5.78 3.856,-9.269c0,-3.517 -1.372,-6.819 -3.856,-9.298Zm-21.547,9.298c0,-6.769 5.509,-12.278 12.278,-12.278c2.004,0 3.895,0.48 5.566,1.338l-16.506,16.506c-0.853,-1.671 -1.338,-3.562 -1.338,-5.566Zm5.182,10.015l1.073,-1.073l-0.599,-0.598l-1.151,1.151c-0.644,-0.525 -1.231,-1.118 -1.756,-1.755l1.112,-1.113l-0.598,-0.598l-1.033,1.033c-0.164,-0.231 -0.322,-0.474 -0.469,-0.722l16.851,-16.851c0.248,0.146 0.485,0.305 0.722,0.468l-0.609,0.61l0.598,0.598l0.695,-0.694c0.637,0.519 1.219,1.095 1.738,1.727l-0.655,0.695l0.616,0.581l0.559,-0.593c0.163,0.226 0.316,0.458 0.462,0.695l-16.884,16.884c-0.232,-0.141 -0.457,-0.287 -0.672,-0.445Zm7.096,2.263c-2.038,0 -3.963,-0.502 -5.656,-1.383l16.551,-16.551c0.886,1.693 1.383,3.618 1.383,5.656c0,6.769 -5.509,12.278 -12.278,12.278Z" style="fill:#add487;fill-rule:nonzero;"/><circle cx="20.153" cy="20.548" r="0.423" style="fill:#add487;"/></g></g></svg>