<?xml version="1.0" encoding="UTF-8" standalone="no"?><!DOCTYPE svg PUBLIC "-//W3C//DTD SVG 1.1//EN" "http://www.w3.org/Graphics/SVG/1.1/DTD/svg11.dtd"><svg width="100%" height="100%" viewBox="0 0 13 13" version="1.1" xmlns="http://www.w3.org/2000/svg" xmlns:xlink="http://www.w3.org/1999/xlink" xml:space="preserve" xmlns:serif="http://www.serif.com/" style="fill-rule:evenodd;clip-rule:evenodd;stroke-linejoin:round;stroke-miterlimit:1.41421;"><g><g><path d="M4.415,6.895c0,-0.156 -0.127,-0.283 -0.284,-0.283l-0.99,0c-0.156,0 -0.283,0.127 -0.283,0.283l0,0.99c0,0.157 0.127,0.284 0.283,0.284l0.99,0c0.157,0 0.284,-0.127 0.284,-0.284l0,-0.99Z" style="fill:#fff;fill-rule:nonzero;"/><path d="M6.889,6.895c0,-0.156 -0.127,-0.283 -0.283,-0.283l-0.99,0c-0.157,0 -0.284,0.127 -0.284,0.283l0,0.99c0,0.157 0.127,0.284 0.284,0.284l0.99,0c0.156,0 0.283,-0.127 0.283,-0.284l0,-0.99Z" style="fill:#fff;fill-rule:nonzero;"/><path d="M9.363,6.895c0,-0.156 -0.127,-0.283 -0.283,-0.283l-0.99,0c-0.157,0 -0.284,0.127 -0.284,0.283l0,0.99c0,0.157 0.127,0.284 0.284,0.284l0.99,0c0.156,0 0.283,-0.127 0.283,-0.284l0,-0.99Z" style="fill:#fff;fill-rule:nonzero;"/><path d="M4.415,9.369c0,-0.156 -0.127,-0.283 -0.284,-0.283l-0.99,0c-0.156,0 -0.283,0.127 -0.283,0.283l0,0.99c0,0.157 0.127,0.284 0.283,0.284l0.99,0c0.157,0 0.284,-0.127 0.284,-0.284l0,-0.99Z" style="fill:#fff;fill-rule:nonzero;"/><path d="M6.889,9.369c0,-0.156 -0.127,-0.283 -0.283,-0.283l-0.99,0c-0.157,0 -0.284,0.127 -0.284,0.283l0,0.99c0,0.157 0.127,0.284 0.284,0.284l0.99,0c0.156,0 0.283,-0.127 0.283,-0.284l0,-0.99Z" style="fill:#fff;fill-rule:nonzero;"/><path d="M9.363,9.369c0,-0.156 -0.127,-0.283 -0.283,-0.283l-0.99,0c-0.157,0 -0.284,0.127 -0.284,0.283l0,0.99c0,0.157 0.127,0.284 0.284,0.284l0.99,0c0.156,0 0.283,-0.127 0.283,-0.284l0,-0.99Z" style="fill:#fff;fill-rule:nonzero;"/><path d="M11.133,1.392l0,1.511c0,0.684 -0.554,1.234 -1.237,1.234l-0.781,0c-0.683,0 -1.245,-0.55 -1.245,-1.234l0,-1.517l-3.519,0l0,1.517c0,0.684 -0.562,1.234 -1.245,1.234l-0.781,0c-0.683,0 -1.237,-0.55 -1.237,-1.234l0,-1.511c-0.597,0.018 -1.088,0.512 -1.088,1.119l0,8.86c0,0.619 0.502,1.127 1.12,1.127l9.981,0c0.618,0 1.12,-0.509 1.12,-1.127l0,-8.86c0,-0.607 -0.491,-1.101 -1.088,-1.119Zm-0.362,9.427c0,0.268 -0.217,0.485 -0.485,0.485l-8.373,0c-0.267,0 -0.484,-0.217 -0.484,-0.485l0,-4.576c0,-0.268 0.217,-0.485 0.484,-0.485l8.373,0c0.268,0 0.485,0.217 0.485,0.485l0,4.576Z" style="fill:#fff;fill-rule:nonzero;"/><path d="M2.323,3.327l0.772,0c0.234,0 0.424,-0.19 0.424,-0.424l0,-2.479c0,-0.234 -0.19,-0.424 -0.424,-0.424l-0.772,0c-0.235,0 -0.425,0.19 -0.425,0.424l0,2.479c0,0.234 0.19,0.424 0.425,0.424Z" style="fill:#fff;fill-rule:nonzero;"/><path d="M9.105,3.327l0.772,0c0.234,0 0.425,-0.19 0.425,-0.424l0,-2.479c0,-0.234 -0.191,-0.424 -0.425,-0.424l-0.772,0c-0.234,0 -0.424,0.19 -0.424,0.424l0,2.479c0,0.234 0.19,0.424 0.424,0.424Z" style="fill:#fff;fill-rule:nonzero;"/></g></g></svg>