<?xml version="1.0" encoding="UTF-8" standalone="no"?><!DOCTYPE svg PUBLIC "-//W3C//DTD SVG 1.1//EN" "http://www.w3.org/Graphics/SVG/1.1/DTD/svg11.dtd"><svg width="100%" height="100%" viewBox="0 0 27 21" version="1.1" xmlns="http://www.w3.org/2000/svg" xmlns:xlink="http://www.w3.org/1999/xlink" xml:space="preserve" xmlns:serif="http://www.serif.com/" style="fill-rule:evenodd;clip-rule:evenodd;stroke-linejoin:round;stroke-miterlimit:1.41421;"><g><g><path d="M23.907,6.603c-0.135,-0.319 -0.259,-0.609 -0.495,-0.774c-0.092,-0.202 -0.261,-0.437 -0.521,-0.737c-0.167,-0.194 -0.35,-0.376 -0.527,-0.551c-0.227,-0.227 -0.604,-0.602 -0.64,-0.762c0.011,-0.028 0.019,-0.058 0.025,-0.088c0.127,-0.652 0.377,-1.696 0.537,-1.975c0.062,-0.109 0.208,-0.347 0.043,-0.631c-0.099,-0.17 -0.282,-0.258 -0.479,-0.258l0,0c-0.168,0 -0.273,0.029 -0.402,0.152c-0.009,-0.086 -0.036,-0.127 -0.092,-0.213c-0.107,-0.164 -0.288,-0.215 -0.485,-0.215c-0.001,0 -0.002,0 -0.003,0c-0.193,0 -0.485,-0.048 -1.389,1.214c-0.022,-0.019 -0.044,-0.066 -0.064,-0.083c-0.424,-0.364 -1.135,-0.987 -2.524,-0.987c-0.172,0 -0.352,0.002 -0.536,0.021c-0.263,0.027 -0.465,0.232 -0.492,0.489c-0.342,-0.138 -0.747,-0.33 -1.223,-0.552c-0.904,-0.422 -1.777,-0.653 -2.595,-0.653l0,0c-2.428,0 -3.532,1.854 -3.578,1.932c-0.136,0.233 -0.084,0.537 0.123,0.71c0.102,0.085 0.228,0.131 0.353,0.131c0.128,0 0.257,-0.042 0.36,-0.131c0.008,-0.007 0.967,-0.809 2.186,-0.809c0.25,0 0.497,0.035 0.738,0.103c-0.982,0.039 -1.675,0.313 -2.114,0.833c-0.167,0.197 -0.174,0.483 -0.019,0.688c0.026,0.034 0.055,0.065 0.087,0.091c-0.09,0.008 -0.188,0.012 -0.292,0.012c-0.401,0 -1.408,-0.075 -2.097,-0.776c-0.108,-0.109 -0.25,-0.164 -0.393,-0.164c-0.132,0 -0.264,0.046 -0.369,0.141c-0.219,0.198 -0.244,0.533 -0.057,0.76c0.043,0.052 0.669,0.802 1.625,1.396c-0.571,0.045 -1.9,0.255 -2.422,1.219c-0.097,0.179 -0.085,0.392 0.019,0.556c-0.137,-0.037 -0.278,-0.079 -0.424,-0.126c-0.766,-0.25 -1.559,-0.376 -2.355,-0.376c-1.828,0 -3.074,0.663 -3.126,0.692c-0.246,0.133 -0.354,0.429 -0.25,0.689c0.085,0.214 0.291,0.347 0.511,0.347c0.048,0 0.096,-0.006 0.144,-0.019c0.007,-0.002 0.736,-0.194 1.492,-0.194c1.287,0 1.387,0.518 1.419,0.688c0.02,0.101 0.042,0.282 -0.029,0.367c-0.069,0.085 -0.293,0.175 -0.711,0.175c-0.528,0 -1.061,-0.14 -1.066,-0.141c-0.047,-0.013 -0.094,-0.019 -0.142,-0.019c-0.196,0 -0.382,0.105 -0.481,0.283c-0.099,0.176 -0.091,0.387 0.009,0.553c-0.194,-0.002 -0.392,-0.011 -0.59,-0.027c-0.015,-0.001 -0.03,-0.002 -0.045,-0.002c-0.265,0 -0.495,0.19 -0.542,0.455c-0.05,0.279 0.121,0.551 0.395,0.627c3.101,0.862 11.406,3.804 12.581,7.03c0.254,0.695 0.151,1.362 -0.314,2.04c-0.152,0.222 -0.122,0.52 0.071,0.707c0.106,0.103 0.244,0.156 0.383,0.156c0.114,0 0.228,-0.035 0.325,-0.107c0.078,-0.056 1.874,-1.42 1.542,-5.676c0.325,-0.601 1.602,-2.956 2.488,-4.392c0.23,-0.373 0.352,-0.412 0.353,-0.413c0.065,0.007 0.277,0.165 0.403,0.26c0.342,0.254 0.811,0.604 1.443,0.604c0.07,0 0.141,-0.004 0.211,-0.013c0.025,-0.003 0.052,-0.005 0.078,-0.005c0.452,0 1.154,0.391 1.707,0.95c0.384,0.388 0.528,0.689 0.547,0.803c-0.132,0.237 -0.071,0.541 0.152,0.708c0.132,0.099 0.823,0.593 1.474,0.593c0.341,0 0.63,-0.133 0.83,-0.373c0.388,-0.102 0.861,-0.356 1.04,-0.863c0.145,-0.082 0.283,-0.207 0.383,-0.387c0.348,-0.625 0.091,-1.591 -0.807,-3.043c-0.852,-1.377 -1.187,-2.168 -1.387,-2.64Zm1.334,5.651c-0.023,0.715 -0.899,0.784 -0.899,0.784c-0.102,0.237 -0.285,0.321 -0.494,0.321c-0.5,0 -1.143,-0.483 -1.143,-0.483c0.467,-0.643 -1.441,-2.571 -2.736,-2.571c-0.05,0 -0.098,0.003 -0.146,0.009c-0.049,0.006 -0.097,0.009 -0.143,0.009c-0.819,0 -1.304,-0.863 -1.855,-0.863c-0.246,0 -0.506,0.173 -0.814,0.673c-1.037,1.683 -2.582,4.564 -2.582,4.564c0.369,4.127 -1.304,5.349 -1.304,5.349c3.699,-5.395 -12.574,-9.913 -12.574,-9.913c0.253,0.021 0.492,0.029 0.717,0.029c1.546,0 2.442,-0.421 2.442,-0.421c-0.235,0.077 -0.456,0.107 -0.66,0.107c-0.84,0 -1.392,-0.522 -1.392,-0.522c0,0 0.596,0.16 1.208,0.16c0.723,0 1.469,-0.223 1.282,-1.197c-0.175,-0.911 -1.096,-1.136 -1.961,-1.136c-0.844,0.001 -1.636,0.214 -1.636,0.214c0,0 1.155,-0.626 2.864,-0.626c0.658,0 1.398,0.093 2.185,0.349c0.778,0.253 1.382,0.353 1.834,0.353c1.195,0 1.323,-0.702 0.771,-1.137c-0.23,-0.181 -0.462,-0.244 -0.674,-0.244c-0.489,0 -0.87,0.336 -0.87,0.336c0,0 0.51,-0.942 2.203,-0.942c0.141,0 0.29,0.006 0.448,0.02c0.175,0.016 0.341,0.023 0.501,0.023c1.712,0 2.542,-0.83 2.542,-0.83c-0.498,0.3 -0.995,0.42 -1.472,0.42c-1.906,0 -3.485,-1.918 -3.485,-1.918c0.674,0.685 1.654,0.941 2.491,0.941c0.909,0 1.648,-0.303 1.636,-0.688c-0.011,-0.337 -0.219,-0.428 -0.442,-0.428c-0.264,0 -0.55,0.129 -0.55,0.129c0.445,-0.527 1.226,-0.642 1.944,-0.642c0.562,0 1.086,0.071 1.378,0.071c0.38,0 0.367,-0.12 -0.463,-0.674c-0.661,-0.441 -1.312,-0.597 -1.903,-0.597c-1.452,0 -2.546,0.943 -2.546,0.943c0,0 0.963,-1.645 3.102,-1.645c0.67,0 1.455,0.161 2.361,0.584c1.757,0.82 2.693,1.075 3.164,1.075c0.548,0 0.466,-0.346 0.317,-0.544c-0.277,-0.369 -1.475,-0.438 -1.475,-0.438c0.17,-0.018 0.329,-0.026 0.479,-0.026c1.768,0 2.213,1.127 2.64,1.127c0.107,0 0.213,-0.071 0.339,-0.248c0.474,-0.67 0.89,-1.12 1.001,-1.12c0.046,0 0.041,0.076 -0.033,0.244c-0.254,0.576 -0.161,1.337 -0.161,1.337c0.315,-0.158 1.122,-1.23 1.173,-1.23c0.009,0 -0.004,0.03 -0.044,0.1c-0.276,0.484 -0.599,2.144 -0.599,2.144c-0.23,0.553 0.669,1.175 1.268,1.867c0.6,0.692 0.461,0.784 0.461,0.784c0.462,0.023 0.208,0.576 1.891,3.296c1.682,2.721 0.414,2.721 0.414,2.721Zm-18.273,-5.398c0.019,-0.013 0.039,-0.028 0.057,-0.044c0.062,-0.053 0.284,-0.199 0.506,-0.199c0.118,0 0.224,0.04 0.333,0.126c0.035,0.028 0.058,0.052 0.074,0.072c-0.068,0.033 -0.218,0.081 -0.504,0.081c-0.141,0 -0.297,-0.012 -0.466,-0.036Z" style="fill:#add487;fill-rule:nonzero;"/><path d="M21.002,5.973c-1.446,-0.321 -1.085,-0.772 -1.029,-0.832c-0.068,0.071 -0.752,0.833 0.868,1.096c1.7,0.276 0.092,0.976 1.964,1.206c0,0 -0.253,-1.126 -1.803,-1.47Z" style="fill:#add487;fill-rule:nonzero;"/></g></g></svg>