<?xml version="1.0" encoding="UTF-8" standalone="no"?><!DOCTYPE svg PUBLIC "-//W3C//DTD SVG 1.1//EN" "http://www.w3.org/Graphics/SVG/1.1/DTD/svg11.dtd"><svg width="100%" height="100%" viewBox="0 0 27 27" version="1.1" xmlns="http://www.w3.org/2000/svg" xmlns:xlink="http://www.w3.org/1999/xlink" xml:space="preserve" xmlns:serif="http://www.serif.com/" style="fill-rule:evenodd;clip-rule:evenodd;stroke-linejoin:round;stroke-miterlimit:1.41421;"><g><path d="M26.013,23.15l-4.498,-4.498c-0.153,-0.153 -0.357,-0.237 -0.573,-0.237c-0.042,0 -0.082,0.004 -0.122,0.01l-1.621,-1.621c-0.03,-0.264 -0.106,-0.886 -0.251,-1.748c2.652,-0.495 4.753,-2.66 5.087,-5.419c0.026,-0.211 -0.125,-0.402 -0.336,-0.428c-0.211,-0.025 -0.402,0.125 -0.427,0.336c-0.141,1.163 -0.64,2.206 -1.379,3.024c-0.918,-1.015 -1.419,-2.313 -1.419,-3.696c0,-1.382 0.501,-2.68 1.419,-3.696c0.739,0.818 1.238,1.861 1.379,3.025c0.025,0.21 0.216,0.36 0.427,0.335c0.211,-0.025 0.362,-0.217 0.336,-0.428c-0.382,-3.15 -3.066,-5.525 -6.244,-5.525c-1.219,0 -2.358,0.349 -3.323,0.952c-0.107,-0.124 -0.217,-0.245 -0.328,-0.364c-0.001,-0.001 -0.002,-0.002 -0.003,-0.003c-0.06,-0.063 -0.121,-0.126 -0.182,-0.187l-0.021,-0.022c-0.003,-0.003 -0.006,-0.006 -0.009,-0.008c-1.595,-1.592 -3.625,-2.616 -5.718,-2.882c-2.102,-0.269 -4.093,0.244 -5.604,1.444c-0.167,0.132 -0.195,0.374 -0.063,0.54c0.132,0.166 0.374,0.194 0.541,0.062c2.836,-2.25 7.268,-1.653 10.309,1.388c0.001,0.001 0.003,0.003 0.004,0.004l0.015,0.016c0.057,0.057 0.114,0.115 0.168,0.173c0.001,0.001 0.002,0.002 0.003,0.003c0.088,0.093 0.174,0.188 0.259,0.284c-0.132,0.107 -0.259,0.219 -0.382,0.336c-0.015,0.011 -0.029,0.023 -0.043,0.037c-0.008,0.009 -0.016,0.018 -0.023,0.027c-0.065,0.063 -0.128,0.128 -0.19,0.194c-0.136,-0.157 -0.279,-0.311 -0.426,-0.458c0,0 0,-0.001 -0.001,-0.001c0,0 0,0 0,0c-0.747,-0.747 -1.587,-1.329 -2.463,-1.741c-0.017,-0.009 -0.033,-0.017 -0.05,-0.024c-1.364,-0.63 -2.812,-0.85 -4.133,-0.637c-0.024,0.001 -0.048,0.005 -0.071,0.011c-1.086,0.188 -2.083,0.67 -2.871,1.458c0,0.001 -0.001,0.001 -0.002,0.002c0,0 0,0 0,0c0,0 0,0 0,0c-0.782,0.783 -1.262,1.772 -1.452,2.849c-0.013,0.039 -0.02,0.08 -0.02,0.121c-0.204,1.313 0.017,2.749 0.642,4.103c0.007,0.017 0.015,0.034 0.024,0.05c0.412,0.876 0.994,1.716 1.741,2.464c1.393,1.392 3.15,2.261 4.948,2.447c0.239,0.024 0.476,0.037 0.708,0.037c0.344,0 0.681,-0.027 1.006,-0.08c0.013,-0.002 0.026,-0.004 0.039,-0.007c1.116,-0.189 2.108,-0.686 2.886,-1.462c0,-0.001 0,-0.001 0,-0.001c0,0 0,0 0,0c0.001,0 0.001,-0.001 0.002,-0.001c0.009,-0.01 0.019,-0.021 0.029,-0.031c0.223,0.189 0.46,0.363 0.708,0.52c-0.04,0.042 -0.081,0.085 -0.122,0.126c-0.702,0.702 -1.552,1.208 -2.526,1.506c-0.164,0.05 -0.275,0.203 -0.272,0.374c0.003,0.172 0.119,0.32 0.284,0.365l0.062,0.017c0.031,0.009 0.063,0.017 0.095,0.026c1.867,0.492 3.538,0.76 4.368,0.875c0.018,0.003 0.035,0.004 0.053,0.004c0.101,0 0.199,-0.04 0.272,-0.113l0.719,-0.718c0.085,-0.086 0.125,-0.206 0.108,-0.325c-0.053,-0.387 -0.116,-0.786 -0.186,-1.19c0.162,0.012 0.326,0.019 0.491,0.019c0.132,0 0.263,-0.005 0.393,-0.013c0.136,0.803 0.212,1.405 0.245,1.688l-1.591,1.59c-1.139,-0.133 -7.461,-0.974 -11.591,-3.651c-0.002,-0.001 -0.004,-0.002 -0.006,-0.003c-0.624,-0.39 -1.209,-0.855 -1.737,-1.384c-3.048,-3.048 -3.641,-7.485 -1.378,-10.322c0.132,-0.166 0.105,-0.408 -0.061,-0.54c-0.166,-0.132 -0.408,-0.105 -0.541,0.061c-1.205,1.511 -1.722,3.503 -1.456,5.609c0.266,2.1 1.293,4.137 2.892,5.736c0.569,0.569 1.199,1.07 1.872,1.491c2.454,1.589 5.617,2.535 7.839,3.048c2.052,0.474 3.663,0.673 4.133,0.726l1.621,1.621c-0.037,0.246 0.039,0.506 0.227,0.695l4.499,4.498c0.153,0.153 0.356,0.237 0.573,0.237c0.216,0 0.419,-0.084 0.572,-0.237l1.717,-1.716c0.316,-0.316 0.316,-0.831 0,-1.147Zm-15.149,-8.769l-1.875,-1.875l1.485,-1.485l2.404,2.404c-0.571,0.477 -1.255,0.8 -2.014,0.956Zm-5.923,-1.885l1.475,-1.475l1.485,1.485l-1.21,1.21c-0.62,-0.318 -1.211,-0.728 -1.75,-1.22Zm-1.763,-2.295l1.21,-1.209l1.485,1.485l-1.475,1.475c-0.499,-0.546 -0.906,-1.138 -1.22,-1.751Zm-0.774,-3.192l1.44,1.44l-1,0.999c-0.308,-0.812 -0.457,-1.643 -0.44,-2.439Zm1.065,-2.993l2.404,2.404l-1.485,1.485l-1.875,-1.875c0.154,-0.745 0.47,-1.433 0.956,-2.014Zm2.555,-1.502l1.877,1.877l-1.485,1.485l-2.404,-2.404c0.58,-0.486 1.268,-0.803 2.012,-0.958Zm5.928,1.884l-1.478,1.478l-1.485,-1.485l1.212,-1.212c0.613,0.313 1.205,0.72 1.751,1.219Zm-2.022,2.022l-1.485,1.485l-1.485,-1.485l1.485,-1.485l1.485,1.485Zm2.18,5.15l-1.092,-1.093l0.569,-0.569c0.097,0.585 0.275,1.143 0.523,1.662Zm-0.608,-2.665l-1.028,1.029l-1.485,-1.485l1.485,-1.485l1.082,1.082c-0.036,0.271 -0.054,0.547 -0.054,0.827c0,0.011 0,0.022 0,0.032Zm-3.601,-0.456l-1.485,1.484l-1.485,-1.484l1.485,-1.485l1.485,1.485Zm-0.941,2.028l1.485,-1.485l1.485,1.485l-1.485,1.485l-1.485,-1.485Zm6.732,2.09c-0.883,-0.979 -1.421,-2.275 -1.421,-3.694c0,-1.419 0.538,-2.715 1.422,-3.694c0.916,1.015 1.417,2.312 1.417,3.694c0,1.382 -0.501,2.679 -1.418,3.694Zm-1.949,-5.422l-0.725,-0.725l1.478,-1.478c0.071,0.078 0.141,0.157 0.208,0.237c-0.427,0.587 -0.756,1.251 -0.961,1.966Zm-2.295,-4.301l-1.003,1.003l-1.443,-1.443c0.798,-0.018 1.631,0.131 2.446,0.44Zm-0.302,11.613c-0.575,-0.059 -1.147,-0.197 -1.701,-0.407l1,-1l1.439,1.438c-0.242,0.005 -0.488,-0.005 -0.738,-0.031Zm7.552,1.793l-0.447,0.447c-0.69,-0.1 -1.81,-0.286 -3.101,-0.585c0.636,-0.322 1.21,-0.739 1.717,-1.245c0.094,-0.094 0.185,-0.191 0.273,-0.291c0.429,0.2 0.884,0.353 1.359,0.453c0.074,0.414 0.142,0.824 0.199,1.221Zm-2.452,-3.149c1.056,-1.159 1.633,-2.645 1.633,-4.228c0,-1.583 -0.577,-3.069 -1.633,-4.228c0.96,-0.806 2.197,-1.292 3.545,-1.292c1.342,0 2.584,0.482 3.548,1.291c-1.057,1.159 -1.634,2.646 -1.634,4.229c0,1.584 0.577,3.07 1.634,4.23c-0.964,0.808 -2.206,1.291 -3.548,1.291c-1.348,0 -2.585,-0.487 -3.545,-1.293Zm4.585,4.423l1.333,1.333l-1.307,1.307l-1.333,-1.333l1.307,-1.307Zm6.638,6.229l-1.716,1.716c-0.016,0.016 -0.043,0.016 -0.059,0l-4.498,-4.498c-0.016,-0.016 -0.016,-0.043 0,-0.059l1.716,-1.716c0.008,-0.008 0.018,-0.012 0.03,-0.012c0.011,0 0.021,0.004 0.029,0.012l4.498,4.498c0.016,0.016 0.016,0.043 0,0.059Z" style="fill:#add487;fill-rule:nonzero;"/></g></svg>