<?xml version="1.0" encoding="UTF-8" standalone="no"?><!DOCTYPE svg PUBLIC "-//W3C//DTD SVG 1.1//EN" "http://www.w3.org/Graphics/SVG/1.1/DTD/svg11.dtd"><svg width="100%" height="100%" viewBox="0 0 12 12" version="1.1" xmlns="http://www.w3.org/2000/svg" xmlns:xlink="http://www.w3.org/1999/xlink" xml:space="preserve" xmlns:serif="http://www.serif.com/" style="fill-rule:evenodd;clip-rule:evenodd;stroke-linejoin:round;stroke-miterlimit:1.41421;"><path id="Search" d="M11.706,10.288l-2.607,-2.607c-0.013,-0.014 -0.03,-0.023 -0.044,-0.036c0.513,-0.778 0.812,-1.71 0.812,-2.711c0,-2.725 -2.209,-4.934 -4.933,-4.934c-2.725,0 -4.934,2.209 -4.934,4.934c0,2.724 2.209,4.933 4.934,4.933c1.001,0 1.933,-0.299 2.711,-0.812c0.013,0.014 0.022,0.03 0.036,0.044l2.607,2.607c0.392,0.392 1.027,0.392 1.418,0c0.392,-0.391 0.392,-1.026 0,-1.418Zm-6.772,-2.131c-1.781,0 -3.224,-1.443 -3.224,-3.223c0,-1.781 1.443,-3.224 3.224,-3.224c1.78,0 3.223,1.443 3.223,3.224c0,1.78 -1.443,3.223 -3.223,3.223Z" style="fill:#fff;"/></svg>